<?xml version="1.0" encoding="utf-8"?>
<!-- Generator: Adobe Illustrator 25.0.0, SVG Export Plug-In . SVG Version: 6.00 Build 0)  -->
<svg version="1.1" id="Layer_1" xmlns="http://www.w3.org/2000/svg" xmlns:xlink="http://www.w3.org/1999/xlink" x="0px" y="0px"
	 viewBox="0 0 792 612" style="enable-background:new 0 0 792 612;" xml:space="preserve">
<style type="text/css">
	.st0{fill:#00853F;}
</style>
<g>
	<path class="st0" d="M669.78,322.89h23.33l5.56-26.86h-23.35l6.16-29.74h-34.23l-17.79,86.01c-1.01,4.86-1.45,8.87-1.32,12.24
		c0.16,4.15,1.74,7.96,4.75,11.35c2.7,3.04,5.69,5.2,8.83,6.43c2.99,1.17,6.67,1.75,11.18,1.75h26.62l5.35-25.77h-13.62
		c-3.36,0-5.89-0.6-7.14-1.69c-0.43-0.37-1.15-0.99-0.66-3.28L669.78,322.89z"/>
	<polygon class="st0" points="100.3,265.55 94.4,294.03 131.45,294.03 137.35,265.55 	"/>
	<path class="st0" d="M213.04,341.81l22.86,41.53h42.72l-26.4-46.44c5.2-2.91,9.76-6.48,12.09-8.49
		c4.78-4.11,11.01-13.73,12.74-22.13c2.33-11.23,0.28-20.91-6.1-28.82c-7.12-8.78-20.81-11.92-30.35-11.92h-87.24l-5.9,28.47h37.71
		h4.28l31.22-0.08c6,0,10.44,1.03,13.19,3.05c1.47,1.08,2.72,2.57,1.98,6.15c-0.66,3.19-3.13,5.81-7.52,8.02
		c-4.21,2.12-8.5,3.13-13.11,3.13H181.1l2.7-11.56h-38.2l-17.04,80.6h6.45h27.39h4.27l8.59-41.53h37.78V341.81z"/>
	<polygon class="st0" points="92.88,302.74 75.87,383.34 113.14,383.34 129.95,302.74 	"/>
	<path class="st0" d="M378.05,306.52c-8.9-7.69-21.91-11.6-38.67-11.6c-14.86,0-28.42,3.5-40.3,10.37
		c-13.76,7.86-22.17,18.77-25,32.44c-3.48,16.77,0.27,29.64,11.12,38.26c8.82,6.95,21.9,10.49,38.91,10.49
		c15.59,0,29.08-3.42,40.12-10.12c12.28-7.5,19.95-18.13,22.73-31.67l0.96-4.51C390.84,326.02,387.51,314.71,378.05,306.52
		 M348.9,337.91c-1.49,7.15-4.43,12.77-8.72,16.69c-4.21,3.81-9.64,5.67-16.63,5.67c-5.8,0-9.98-1.69-12.77-5.16
		c-2.81-3.48-3.53-8.18-2.26-14.34c1.16-5.53,3.94-9.98,8.54-13.56c4.68-3.65,9.89-5.41,15.94-5.41c6.25,0,10.64,1.52,13.42,4.67
		C349.07,329.52,349.9,333.16,348.9,337.91"/>
	<path class="st0" d="M616.03,306.52c-8.89-7.69-21.91-11.6-38.66-11.6c-14.88,0-28.42,3.5-40.32,10.37
		c-13.75,7.86-22.17,18.77-25,32.44c-3.48,16.77,0.27,29.64,11.11,38.26c8.82,6.95,21.91,10.49,38.92,10.49
		c15.6,0,29.09-3.42,40.12-10.12c12.31-7.5,19.95-18.13,22.75-31.67l0.94-4.53C628.81,326.02,625.51,314.71,616.03,306.52
		 M589.22,337.91c-1.51,7.26-4.36,12.71-8.72,16.69c-4.22,3.81-9.65,5.67-16.64,5.67c-5.8,0-9.98-1.69-12.77-5.16
		c-2.8-3.48-3.54-8.18-2.26-14.34c1.14-5.53,3.93-9.98,8.53-13.56c4.69-3.65,9.89-5.41,15.93-5.41c6.25,0,10.64,1.52,13.42,4.68
		C589.39,329.52,590.2,333.16,589.22,337.91"/>
	<path class="st0" d="M496.13,306.47c-9.22-7.65-22.21-11.55-38.6-11.55c-6.3,0-12.71,0.78-18.54,2.03l7.42-31.37h-36.34
		l-13.48,60.55c-0.43,2.06-4.28,20.4-4.18,27.72c0.13,8.65,4.1,16.72,10.93,22.14c8.81,6.95,21.9,10.49,38.91,10.49
		c15.59,0,29.07-3.42,40.1-10.12c12.3-7.48,19.95-18.13,22.73-31.67l-0.01,0.18C505.33,343.81,511.1,318.88,496.13,306.47
		 M469.38,337.91c-1.47,7.17-4.43,12.77-8.74,16.69c-4.2,3.81-9.61,5.67-16.61,5.67c-5.82,0-9.99-1.69-12.77-5.16
		c-0.64-0.77-0.69-1.94-0.66-4.64c0.06-4.35,2.63-15.52,3.83-18.38c1.05-2.45,1.61-3.71,3.11-4.88c4.66-3.65,9.87-5.41,15.9-5.41
		c6.26,0,10.67,1.52,13.44,4.67C469.57,329.52,470.35,333.16,469.38,337.91"/>
	<path class="st0" d="M716.13,275.84c0,2.68-0.96,4.99-2.87,6.9s-4.2,2.87-6.88,2.87s-4.98-0.96-6.89-2.87
		c-1.91-1.91-2.86-4.21-2.86-6.9c0-2.66,0.95-4.96,2.86-6.88c1.91-1.91,4.21-2.88,6.89-2.88s4.98,0.96,6.88,2.88
		C715.18,270.88,716.13,273.18,716.13,275.84 M714.78,275.84c0-2.31-0.83-4.29-2.46-5.92c-1.64-1.64-3.62-2.46-5.93-2.46
		s-4.28,0.83-5.93,2.47c-1.64,1.63-2.46,3.61-2.46,5.91c0,2.33,0.81,4.29,2.46,5.94c1.64,1.64,3.61,2.46,5.93,2.46
		c2.31,0,4.28-0.82,5.93-2.47C713.94,280.13,714.78,278.15,714.78,275.84 M711.01,281.56h-1.85l-2.19-4.89h-3.16v4.89h-1.69v-11.37
		h4.82c1.29,0,2.27,0.33,2.92,0.99c0.64,0.66,0.96,1.41,0.96,2.21c0,0.6-0.18,1.17-0.52,1.72c-0.35,0.56-0.9,0.95-1.65,1.19
		L711.01,281.56z M703.82,275.31h2.94c0.78,0,1.35-0.19,1.71-0.57c0.37-0.39,0.56-0.85,0.56-1.42c0-0.58-0.21-1.02-0.59-1.31
		c-0.4-0.3-0.9-0.46-1.5-0.46h-3.13v3.76H703.82z"/>
</g>
<path d="M431.17,395.02h23.51c9.37,0,15.18,5.11,15.18,13.08c0,6.02-2.66,10.99-8.67,12.66v0.14c5.81,1.12,7,5.39,7.49,10.28
	c0.42,4.9,0.14,10.36,2.94,13.78h-7.42c-1.89-2.03-0.84-7.42-1.82-12.31c-0.7-4.9-1.89-9.02-8.33-9.02h-16.23v21.34h-6.65V395.02z
	 M451.67,418.04c6.23,0,11.54-1.61,11.54-8.88c0-4.9-2.66-8.54-8.88-8.54h-16.51v17.42H451.67z"/>
<path d="M493.72,407.96c11.47,0,17.56,8.32,17.56,18.96c0,10.56-6.09,18.89-17.56,18.89c-11.48,0-17.56-8.33-17.56-18.89
	C476.16,416.29,482.25,407.96,493.72,407.96z M493.72,440.57c6.22,0,11.26-4.9,11.26-13.64c0-8.82-5.04-13.71-11.26-13.71
	c-6.23,0-11.27,4.9-11.27,13.71C482.46,435.67,487.5,440.57,493.72,440.57z"/>
<path d="M533.89,407.96c11.47,0,17.56,8.32,17.56,18.96c0,10.56-6.09,18.89-17.56,18.89c-11.48,0-17.56-8.33-17.56-18.89
	C516.33,416.29,522.41,407.96,533.89,407.96z M533.89,440.57c6.22,0,11.26-4.9,11.26-13.64c0-8.82-5.04-13.71-11.26-13.71
	c-6.23,0-11.26,4.9-11.26,13.71C522.62,435.67,527.66,440.57,533.89,440.57z"/>
<path d="M558.45,408.8h5.6v5.32h0.14c2.66-4.06,6.72-6.16,11.68-6.16c4.41,0,8.47,1.75,9.94,6.16c2.45-3.85,6.72-6.16,11.33-6.16
	c7.21,0,12.03,3.01,12.03,10.49v26.52h-5.95v-23.72c0-4.48-1.19-8.05-7-8.05c-5.74,0-9.45,3.64-9.45,9.23v22.53h-5.95v-23.72
	c0-4.69-1.47-8.05-6.79-8.05c-7.07,0-9.66,6.51-9.66,9.23v22.53h-5.95V408.8z"/>
<path d="M618.35,395.02h5.95v18.68h0.14c1.96-3.99,6.57-5.74,11.54-5.74c11.12,0,16.65,8.82,16.65,19.03s-5.46,18.82-16.51,18.82
	c-3.71,0-9.02-1.4-11.68-5.67h-0.14v4.83h-5.95V395.02z M635.14,413.21c-7.98,0-11.06,6.85-11.06,13.64
	c0,7.14,3.22,13.71,11.4,13.71c8.12,0,10.84-6.93,10.84-13.99C646.33,419.79,642.83,413.21,635.14,413.21z"/>
<path d="M691.67,444.83c-1.05,0.63-2.38,0.98-4.27,0.98c-3.08,0-5.04-1.68-5.04-5.6c-3.29,3.85-7.7,5.6-12.73,5.6
	c-6.58,0-11.96-2.94-11.96-10.15c0-8.18,6.09-9.93,12.24-11.12c6.58-1.26,12.17-0.84,12.17-5.32c0-5.18-4.27-6.02-8.05-6.02
	c-5.04,0-8.75,1.54-9.03,6.85h-5.95c0.35-8.95,7.28-12.1,15.32-12.1c6.51,0,13.57,1.47,13.57,9.93v18.61c0,2.8,0,4.06,1.89,4.06
	c0.49,0,1.05-0.07,1.82-0.35V444.83z M682.02,426.29c-2.31,1.68-6.79,1.75-10.77,2.45c-3.92,0.7-7.28,2.1-7.28,6.51
	c0,3.92,3.36,5.32,7,5.32c7.84,0,11.05-4.9,11.05-8.19V426.29z"/>
<path d="M698.45,408.89c2.91,0,5.36,2.3,5.36,5.31c0,3.07-2.44,5.37-5.36,5.37c-2.93,0-5.38-2.3-5.38-5.37
	C693.07,411.18,695.53,408.89,698.45,408.89z M698.45,418.78c2.47,0,4.38-1.97,4.38-4.58c0-2.56-1.91-4.53-4.38-4.53
	c-2.5,0-4.41,1.97-4.41,4.53C694.04,416.81,695.96,418.78,698.45,418.78z M696.37,411.1h2.41c1.49,0,2.19,0.59,2.19,1.79
	c0,1.13-0.71,1.6-1.64,1.7l1.79,2.76h-1.04l-1.7-2.69h-1.03v2.69h-0.97V411.1z M697.34,413.87h1.01c0.86,0,1.64-0.04,1.64-1.03
	c0-0.83-0.71-0.96-1.37-0.96h-1.28V413.87z"/>
</svg>
